<svg width="21" height="21" viewBox="0 0 21 21" fill="none" xmlns="http://www.w3.org/2000/svg">
<g clip-path="url(#clip0_229_800)">
<path d="M7.87436 -3.02733e-05V1.96872C9.3397 1.96582 10.7911 2.25298 12.145 2.81366C13.4988 3.37435 14.7283 4.19745 15.7625 5.23553C16.8 6.27019 17.6227 7.49974 18.1833 8.85348C18.744 10.2072 19.0315 11.6584 19.0293 13.1237H20.998C20.998 5.87472 15.122 -0.00134277 7.87305 -0.00134277L7.87436 -3.02733e-05Z" fill="white"/>
<path d="M7.875 3.9375V5.90625C9.80306 5.90625 11.6156 6.657 12.9793 8.02069C14.343 9.38437 15.0938 11.1969 15.0938 13.125H17.0625C17.0625 10.6883 16.0945 8.35145 14.3715 6.62846C12.6486 4.90547 10.3117 3.9375 7.875 3.9375ZM9.84375 7.875L8.53125 9.1875L3.9375 10.5L0 19.0312L0.51975 19.551L5.29462 14.7761C5.21982 14.497 5.23919 14.2011 5.34975 13.9341C5.4603 13.6672 5.65585 13.4442 5.90607 13.2997C6.15629 13.1552 6.4472 13.0973 6.73366 13.135C7.02013 13.1727 7.28614 13.3039 7.49045 13.5082C7.69476 13.7125 7.82594 13.9786 7.86365 14.265C7.90136 14.5515 7.84348 14.8424 7.699 15.0926C7.55452 15.3428 7.33152 15.5384 7.06457 15.6489C6.79762 15.7595 6.50165 15.7789 6.22256 15.7041L1.44769 20.4789L1.96744 20.9987L10.4987 17.0612L11.8112 12.4674L13.1237 11.1549L9.84244 7.87369L9.84375 7.875Z" fill="white"/>
</g>
<defs>
<clipPath id="clip0_229_800">
<rect width="21" height="21" fill="white"/>
</clipPath>
</defs>
</svg>
