<svg width="20" height="20" viewBox="0 0 20 20" fill="none" xmlns="http://www.w3.org/2000/svg">
<path d="M3.33398 8.33335C3.33398 5.19085 3.33398 3.61919 4.31065 2.64335C5.28732 1.66752 6.85815 1.66669 10.0007 1.66669H11.2507C14.3932 1.66669 15.9648 1.66669 16.9407 2.64335C17.9165 3.62002 17.9173 5.19085 17.9173 8.33335V11.6667C17.9173 14.8092 17.9173 16.3809 16.9407 17.3567C15.964 18.3325 14.3932 18.3334 11.2507 18.3334H10.0007C6.85815 18.3334 5.28648 18.3334 4.31065 17.3567C3.33482 16.38 3.33398 14.8092 3.33398 11.6667V8.33335Z" stroke="white" stroke-width="1.5"/>
<path d="M8.16684 9.97833C7.81101 9.35833 7.63934 8.8525 7.53601 8.33916C7.38267 7.58083 7.73351 6.83916 8.31351 6.36583C8.55934 6.16583 8.84017 6.23416 8.98517 6.495L9.31267 7.0825C9.57184 7.5475 9.70184 7.78083 9.67601 8.0275C9.65101 8.27416 9.47601 8.475 9.12601 8.8775L8.16684 9.97833ZM8.16684 9.97833C8.91693 11.2636 9.98653 12.3332 11.2718 13.0833M11.2718 13.0833C11.8918 13.4392 12.3977 13.6108 12.911 13.7142C13.6693 13.8675 14.411 13.5167 14.8843 12.9367C15.0843 12.6908 15.016 12.41 14.7552 12.265L14.1685 11.9375C13.7018 11.6783 13.4693 11.5483 13.2227 11.5742C12.976 11.5992 12.7752 11.7742 12.3727 12.1242L11.2718 13.0833Z" stroke="white" stroke-width="1.5" stroke-linejoin="round"/>
<path d="M4.16732 5H2.08398M4.16732 10H2.08398M4.16732 15H2.08398" stroke="white" stroke-width="1.5" stroke-linecap="round" stroke-linejoin="round"/>
</svg>
