<svg width="22" height="21" viewBox="0 0 22 21" fill="none" xmlns="http://www.w3.org/2000/svg">
<g opacity="0.92">
<path d="M1.83398 1.83333H5.16732L7.40065 12.9917C7.47685 13.3753 7.68557 13.72 7.99027 13.9652C8.29497 14.2105 8.67623 14.3408 9.06732 14.3333H17.1673C17.5584 14.3408 17.9397 14.2105 18.2444 13.9652C18.5491 13.72 18.7578 13.3753 18.834 12.9917L20.1673 6H6.00065M9.33398 18.5C9.33398 18.9602 8.96089 19.3333 8.50065 19.3333C8.04041 19.3333 7.66732 18.9602 7.66732 18.5C7.66732 18.0398 8.04041 17.6667 8.50065 17.6667C8.96089 17.6667 9.33398 18.0398 9.33398 18.5ZM18.5007 18.5C18.5007 18.9602 18.1276 19.3333 17.6673 19.3333C17.2071 19.3333 16.834 18.9602 16.834 18.5C16.834 18.0398 17.2071 17.6667 17.6673 17.6667C18.1276 17.6667 18.5007 18.0398 18.5007 18.5Z" stroke="white" stroke-width="2" stroke-linecap="round" stroke-linejoin="round"/>
</g>
</svg>
